<svg id="Capa_1" enable-background="new 0 0 512 512" height="512" viewBox="0 0 512 512" width="512" xmlns="http://www.w3.org/2000/svg"><g><path d="m178.282 70.591h-57.188c-1.857 0-3.637.737-4.95 2.05l-90.38 90.38c-1.313 1.313-2.05 3.093-2.05 4.95v336.529c0 3.866 3.134 7 7 7h181.981l62.968-163.875v-179.654c0-1.857-.737-3.637-2.05-4.95l-90.38-90.38c-1.314-1.312-3.095-2.05-4.951-2.05zm-28.594 125.974c-17.393 0-31.494-14.1-31.494-31.494s14.1-31.494 31.494-31.494 31.494 14.1 31.494 31.494-14.101 31.494-31.494 31.494z" fill="#fee97e"/><path d="m116.145 72.645-90.383 90.374c-1.313 1.313-2.051 3.093-2.051 4.95v336.534c0 3.866 3.134 7 7 7h24.491v-343.535c0-1.857.738-3.637 2.051-4.95l92.433-92.424h-28.592c-1.856.001-3.637.738-4.949 2.051z" fill="#f9da58"/><path d="m237.168 480.007h-174.961c-3.866 0-7-3.134-7-7v-237.948c0-3.866 3.134-7 7-7h174.961c3.866 0 7 3.134 7 7v237.948c0 3.866-3.134 7-7 7z" fill="#ffb952"/><g><path d="m445.755 463.236h8.254c9.117 0 16.508 7.391 16.508 16.508 0 9.117-7.391 16.508-16.508 16.508h-103.613c-4.475 0-8.877-1.385-12.417-4.121-9.372-7.244-19.285-8.771-31.345-9.487l-10-11.805v-81.242l10-11.93c28.255-32.283 64.067-35.291 61.494-83.612-.446-8.374 5.897-15.216 14.283-15.216h.289c6.425 0 12.09 4.208 13.962 10.354 6.665 21.89 8.91 43.635 2.477 66.021-1.29 4.489 2.04 8.969 6.71 8.969h65.932c9.117 0 16.508 7.391 16.508 16.508 0 9.117-7.391 16.508-16.508 16.508h-20.537 14.947c9.117 0 16.508 7.391 16.508 16.508 0 9.117-7.391 16.508-16.508 16.508h-14.947 9.459c9.117 0 16.508 7.391 16.508 16.508 0 9.117-7.391 16.508-16.508 16.508h-14.948z" fill="#ffcebf"/><path d="m388.414 294.185c2.377 45.75-29.737 50.807-57.146 78.782-2.79 2.847-4.356 6.679-4.356 10.665v85.588c0 7.257 5.2 13.457 12.34 14.756 6.782 1.234 12.936 3.506 18.868 8.058 3.538 2.707 7.858 4.218 12.319 4.218h-20.279c-4.461 0-8.78-1.511-12.319-4.218-9.328-7.158-19.203-8.679-31.207-9.389l-10-11.805v-81.242l10-11.93c28.227-32.252 64.007-35.283 61.502-83.483-.436-8.344 6.215-15.34 14.559-15.34 3.194 0 6.215 1.034 8.669 2.829.527.385 1.024.811 1.49 1.267-2.93 2.809-4.673 6.844-4.44 11.244z" fill="#ffb09e"/><g><path d="m460.703 437.824h-9.459c-4.2 0-7.604-3.404-7.604-7.604s3.404-7.604 7.604-7.604h9.459c4.2 0 7.604 3.404 7.604 7.604s-3.404 7.604-7.604 7.604z" fill="#ffb09e"/></g><g><path d="m466.191 404.806h-14.947c-4.2 0-7.604-3.404-7.604-7.604s3.404-7.604 7.604-7.604h14.947c4.2 0 7.604 3.404 7.604 7.604s-3.404 7.604-7.604 7.604z" fill="#ffb09e"/></g><g><path d="m454.009 470.84h-8.254c-4.2 0-7.604-3.404-7.604-7.604s3.404-7.604 7.604-7.604h8.254c4.2 0 7.604 3.404 7.604 7.604s-3.404 7.604-7.604 7.604z" fill="#ffb09e"/></g><path d="m275.102 496.253h24.531c3.866 0 7-3.134 7-7v-118.113c0-3.866-3.134-7-7-7h-24.531l-10 11.527v109z" fill="#f5fcff"/><path d="m295.381 364.145v132.109h-20.277l-10-11.587v-109l10-11.522z" fill="#d8ecfe"/><path d="m212.694 347.626h62.949v157.374c0 3.866-3.134 7-7 7h-55.949z" fill="#8cbdf9"/><path d="m212.693 347.629h20.278v164.371h-20.278z" fill="#73a2da"/></g><path d="m244.188 393.63c-4.2 0-7.604-3.405-7.604-7.604 0-4.2 3.405-7.604 7.604-7.604 4.2 0 7.604 3.404 7.604 7.604 0 4.199-3.405 7.604-7.604 7.604z" fill="#5680a6"/><g><path d="m149.687 172.676c-4.2 0-7.604-3.404-7.604-7.604v-157.468c0-4.2 3.405-7.604 7.604-7.604s7.604 3.404 7.604 7.604v157.468c0 4.2-3.404 7.604-7.604 7.604z" fill="#5680a6"/></g><path d="m179.361 338.286c0-12.876-10.475-23.351-23.351-23.351h-8.65c-4.49 0-8.143-3.653-8.143-8.142 0-4.49 3.653-8.143 8.143-8.143h7.728c2.947 0 5.496 1.896 6.343 4.719 1.206 4.023 5.445 6.304 9.468 5.099 4.022-1.206 6.306-5.446 5.099-9.468-2.379-7.931-8.839-13.629-16.709-15.144v-9.416c0-4.2-3.405-7.604-7.604-7.604s-7.604 3.404-7.604 7.604v9.236c-11.328 1.6-20.072 11.354-20.072 23.116 0 12.876 10.475 23.35 23.351 23.35h8.65c4.49 0 8.142 3.653 8.142 8.143s-3.653 8.143-8.142 8.143h-9.756c-2.948 0-5.497-1.897-6.344-4.72-1.206-4.023-5.446-6.307-9.469-5.098-4.022 1.207-6.305 5.446-5.098 9.469 2.581 8.603 9.961 14.584 18.737 15.441v9.118c0 4.2 3.405 7.604 7.604 7.604s7.604-3.404 7.604-7.604v-9.236c11.33-1.6 20.073-11.354 20.073-23.116z" fill="#5680a6"/><g><path d="m183.179 456.117h-62.987c-4.2 0-7.604-3.404-7.604-7.604s3.405-7.604 7.604-7.604h62.987c4.2 0 7.604 3.404 7.604 7.604s-3.404 7.604-7.604 7.604z" fill="#5680a6"/></g><g><path d="m183.179 424.655h-62.987c-4.2 0-7.604-3.404-7.604-7.604s3.405-7.604 7.604-7.604h62.987c4.2 0 7.604 3.404 7.604 7.604s-3.404 7.604-7.604 7.604z" fill="#5680a6"/></g></g></svg>