<svg height="512" viewBox="0 0 512 512" width="512" xmlns="http://www.w3.org/2000/svg"><path d="m94.674 432.107a35.253 35.253 0 0 0 55.219 43.728l60.583-79.566-57.619-52.816z" fill="#feb784"/><path d="m446.788 282.112-70.788-10.112v-32h-80v32l-86.316 18.5a64 64 0 0 0 -40.1 27.464l-16.731 25.493 57.619 52.816 21.528-28.273h16v120h176v-96h64v-62.37a48 48 0 0 0 -41.212-47.518z" fill="#fec9a3"/><path d="m342.03 272a63.811 63.811 0 0 0 33.97-9.81v-22.19h-80v22.19a63.811 63.811 0 0 0 33.97 9.81z" fill="#feb784"/><path d="m446.788 282.112-70.788-10.112a40 40 0 0 1 -80 0l-86.316 18.5a64 64 0 0 0 -40.1 27.464l-16.731 25.493 57.619 52.816 21.528-28.273h16v120h176v-96h64v-62.37a48 48 0 0 0 -41.212-47.518z" fill="#e0e0de"/><path d="m416 128h-8v48h8a24 24 0 1 0 0-48z" fill="#feb784"/><path d="m256.4 128h-.4a24 24 0 0 0 0 48h8v-48z" fill="#feb784"/><path d="m408 120v56a129.8 129.8 0 0 1 -3.88 31.52 64.008 64.008 0 0 1 -62.09 48.48h-12.06a64 64 0 0 1 -62.09-48.48 129.475 129.475 0 0 1 -3.88-31.52v-56a72.013 72.013 0 0 1 70.62-71.99c.46-.01.92-.01 1.38-.01a72.006 72.006 0 0 1 72 72z" fill="#fec9a3"/><path d="m408 120c0-.426-.057-.839-.064-1.264h-143.872c-.007.425-.064.838-.064 1.264v28.341a23.833 23.833 0 0 0 16.724 3.312l21.94-3.653a192.007 192.007 0 0 1 63.129 0l21.94 3.656a23.883 23.883 0 0 0 20.267-5.989z" fill="#fec093"/><path d="m408 120v56a129.8 129.8 0 0 1 -3.88 31.52 64.008 64.008 0 0 1 -62.09 48.48h-7.44a87.842 87.842 0 0 0 37.41-72v-64a88.165 88.165 0 0 0 -37.38-71.99c.46-.01.92-.01 1.38-.01a72.006 72.006 0 0 1 72 72z" fill="#fec093"/><g fill="#7a432a"><path d="m301.8 89.157a174.36 174.36 0 0 0 68.4 0l5.8-1.157 32 37.333v-5.333a72 72 0 0 0 -144 0v5.331l32-37.331z"/><circle cx="300" cy="148" r="12"/><circle cx="372" cy="148" r="12"/></g><path d="m424 488h-176v-88-32h176z" fill="#348fd9"/><path d="m276 488h148v-120h-28z" fill="#3086cd"/><path d="m272 392h16v16h-16z" fill="#62a9e6"/><path d="m384 392h16v16h-16z" fill="#62a9e6"/><path d="m288 368v-94.286l-40 8.572v85.714z" fill="#2d7dbf"/><path d="m424 368v-89.143l-40-5.714v94.857z" fill="#2d7dbf"/><path d="m424 392h64v96h-64z" fill="#fec9a3"/><path d="m120 488a32 32 0 0 1 -32-32v-128h64v128a32 32 0 0 1 -32 32z" fill="#fec9a3"/><path d="m112 240h48v144h-48z" fill="#f98500"/><rect fill="#fec9a3" height="80" rx="16" width="80" x="88" y="272"/><path d="m152 272h-32a16 16 0 0 1 16 16v48a16 16 0 0 1 -16 16h32a16 16 0 0 0 16-16v-48a16 16 0 0 0 -16-16z" fill="#fec093"/><path d="m56 104h160v64h-160z" fill="#e0e0de"/><path d="m144 240h-16v-25.062l-98.266-14.038a16.074 16.074 0 0 1 -13.734-15.838v-41.062a16.016 16.016 0 0 1 16-16h24v16h-24v41.062l98.266 14.04a16.074 16.074 0 0 1 13.734 15.836z" fill="#c7c7c5"/><path d="m280 432h112v56h-112z" fill="#62a9e6"/><path d="m329.371 200h-9.371v-16h9.371a53.344 53.344 0 0 0 26.629-6.93l8 13.86a69.333 69.333 0 0 1 -34.629 9.07z" fill="#f7a468"/><path d="m416 111.8a24.289 24.289 0 0 1 -28.27 23.86l-21.94-3.66a192.325 192.325 0 0 0 -63.12 0l-21.94 3.66a24.247 24.247 0 0 1 -26.5-32.92h160a24.361 24.361 0 0 1 1.77 9.06z" fill="#348fd9"/><path d="m414.23 70.737v32h-160v-32a48 48 0 0 1 48-48h64a47.982 47.982 0 0 1 15.18 2.46c.89.3 1.77.62 2.63.97a47.98 47.98 0 0 1 30.19 44.57z" fill="#3086cd"/><path d="m414.23 70.737v32h-136c48-16 81.59-44.03 105.81-76.57a47.98 47.98 0 0 1 30.19 44.57z" fill="#2d7dbf"/><path d="m416 111.8a24.289 24.289 0 0 1 -28.27 23.86l-21.94-3.66a191.346 191.346 0 0 0 -20.52-2.29c16.84-7.09 30.66-15.9 40.81-26.97h28.15a24.361 24.361 0 0 1 1.77 9.06z" fill="#3086cd"/><path d="m424 392h64v24h-64z" fill="#fec093"/><path d="m56 168h160v-56.406c-49.853 22.537-114.446 32.529-160 36.932z" fill="#d6d6d4"/><path d="m56 104h104v24h-104z" fill="#348fd9"/><path d="m152 104v64a16 16 0 0 0 32 0v32a16 16 0 0 0 32 0v-96z" fill="#348fd9"/></svg>